<?xml version="1.0" encoding="UTF-8"?><svg xmlns="http://www.w3.org/2000/svg" viewBox="0 0 497.27 497.27"><defs><style>.cls-1{fill:#950fa8;}.cls-2{fill:#fbfcfa;stroke:#000;stroke-miterlimit:10;}</style></defs><g id="background"><circle class="cls-1" cx="248.64" cy="248.64" r="248.64"/></g><g id="blockchain"><path class="cls-2" d="M308.76,180.88c-2.95-.8-5.98-.82-8.86-.08l-9.67-16.91-8.1,4.64,9.67,16.91c-2.09,2.11-3.62,4.73-4.42,7.68-1.22,4.49-.62,9.19,1.69,13.22l4.85,8.49c2.31,4.04,6.06,6.93,10.55,8.16,1.52,.41,3.07,.62,4.6,.62,1.44,0,2.87-.18,4.26-.54l1.9,3.32c-5.36,5.42-6.7,13.97-2.73,20.9l4.85,8.49c2.31,4.04,6.06,6.93,10.55,8.16,1.52,.42,3.07,.62,4.6,.62,1.44,0,2.87-.18,4.26-.54l9.74,17.03,8.1-4.64-9.75-17.04c5.36-5.42,6.7-13.97,2.73-20.9l-4.85-8.49c-3.97-6.93-12.01-10.11-19.4-8.24l-1.9-3.32c2.1-2.11,3.62-4.73,4.42-7.68,1.22-4.49,.62-9.19-1.69-13.23l-4.85-8.48c-2.31-4.04-6.06-6.94-10.55-8.16Zm25.87,53.74l4.86,8.49c1.35,2.36,1.37,5.12,.31,7.42l-2.71-4.74-8.1,4.64,2.72,4.75c-.45-.04-.9-.13-1.35-.25-2.08-.57-3.82-1.91-4.9-3.79l-4.85-8.48c-1.35-2.36-1.38-5.13-.31-7.42l2.78,4.86,8.1-4.64-2.79-4.87c2.52,.25,4.89,1.67,6.24,4.03Zm-20.98-29.79l-8.1,4.64,2.71,4.75c-.45-.04-.9-.13-1.35-.25-2.08-.57-3.82-1.91-4.89-3.79l-4.85-8.49c-1.07-1.87-1.35-4.05-.78-6.14,.12-.45,.28-.88,.47-1.29l2.79,4.87,8.1-4.64-2.78-4.86c2.52,.25,4.89,1.67,6.24,4.03l4.85,8.49c1.07,1.87,1.35,4.05,.78,6.14-.12,.45-.28,.88-.47,1.29l-2.72-4.75Z"/><path class="cls-2" d="M166.29,281.04l9.75-17.04c1.4,.35,2.83,.53,4.25,.53,6.05,0,11.93-3.15,15.15-8.77l4.86-8.48c2.31-4.04,2.91-8.74,1.69-13.23-.8-2.95-2.33-5.57-4.42-7.68l1.9-3.32c1.41,.35,2.83,.53,4.25,.53,6.05,0,11.93-3.15,15.15-8.77l4.85-8.49c3.97-6.93,2.63-15.47-2.73-20.9l9.68-16.91-8.1-4.64-9.68,16.91c-7.39-1.87-15.44,1.3-19.4,8.23l-4.85,8.49c-3.97,6.93-2.63,15.48,2.73,20.9l-1.9,3.33c-2.88-.74-5.91-.72-8.86,.08-4.49,1.22-8.23,4.12-10.55,8.16l-4.85,8.49c-3.97,6.93-2.63,15.48,2.73,20.9l-9.75,17.04,8.1,4.64Zm29.66-72.75c-.57-2.09-.29-4.26,.78-6.14l4.85-8.49c1.35-2.36,3.72-3.78,6.24-4.03l-2.78,4.87,8.1,4.64,2.78-4.87c1.07,2.3,1.04,5.06-.31,7.42l-4.85,8.49c-1.35,2.36-3.72,3.78-6.24,4.03l2.71-4.74-8.1-4.64-2.71,4.75c-.19-.41-.35-.84-.47-1.29Zm-22.64,34.81l4.85-8.49c1.07-1.87,2.81-3.22,4.89-3.79,.45-.12,.9-.2,1.35-.25l-2.79,4.87,8.1,4.64,2.78-4.86c1.07,2.3,1.04,5.06-.31,7.42l-4.86,8.48c-1.35,2.36-3.72,3.78-6.24,4.03l2.71-4.74-8.1-4.64-2.71,4.74c-1.07-2.3-1.04-5.06,.31-7.42Z"/><path class="cls-2" d="M303.25,330.16l19.48-.06-.03-9.34-19.49,.06c-2.06-7.32-8.8-12.7-16.77-12.7h-.05l-9.78,.03c-7.99,.02-14.72,5.45-16.75,12.8h-3.83c-.8-2.85-2.33-5.47-4.49-7.62-3.29-3.27-7.65-5.07-12.28-5.07h-.05l-9.78,.03c-4.65,.01-9.02,1.84-12.3,5.14-2.15,2.17-3.67,4.8-4.45,7.66l-19.62,.06,.03,9.33,19.63-.06c2.06,7.33,8.8,12.7,16.77,12.7h.05l9.78-.03c4.65-.01,9.02-1.84,12.3-5.14,2.15-2.17,3.67-4.8,4.45-7.66h3.82c.8,2.85,2.33,5.47,4.49,7.63,3.29,3.27,7.65,5.06,12.28,5.06h.05l9.78-.03c4.65-.01,9.02-1.84,12.3-5.14,2.15-2.16,3.67-4.79,4.45-7.66Zm-58.25,1.21c-1.52,1.53-3.55,2.38-5.71,2.38l-9.78,.03h-.02c-2.71,0-5.12-1.34-6.58-3.4h5.46l-.03-9.35-5.47,.02c.26-.37,.56-.72,.88-1.05,1.52-1.53,3.55-2.38,5.71-2.38l9.78-.03h.02c2.15,0,4.17,.84,5.7,2.35,.33,.33,.63,.68,.89,1.05h-5.61l.03,9.35,5.61-.02c-.26,.37-.56,.72-.88,1.05Zm41.47,2.25l-9.78,.03h-.02c-2.15,0-4.17-.84-5.7-2.35-.33-.33-.63-.68-.89-1.05l5.47-.02-.03-9.33h-5.46c1.46-2.05,3.87-3.41,6.59-3.42l9.78-.03h.02c2.71,0,5.11,1.34,6.58,3.4l-5.6,.02,.03,9.33h5.61c-.26,.36-.56,.71-.88,1.04-1.52,1.53-3.55,2.38-5.71,2.38Z"/><path class="cls-2" d="M261.06,203.41v-51.7l44.77-25.85-4.67-8.08-44.77,25.85-44.77-25.85-4.67,8.08,44.77,25.85v51.7h9.33Z"/><path class="cls-2" d="M395.92,281.45l-44.76,25.87-44.79-25.83-4.66,8.09,44.79,25.83,.02,51.7h9.33l-.02-51.7,44.76-25.87-4.67-8.08Z"/><path class="cls-2" d="M166.03,366.77v-51.7l44.77-25.85-4.67-8.08-44.77,25.85-44.78-25.85-4.67,8.09,44.77,25.85v51.7h9.34Z"/><path class="cls-2" d="M201.51,117.32l54.88-31.69,54.88,31.69v58.09h9.34v-63.48l-64.22-37.08-64.22,37.08v63.48h9.33v-58.09Z"/><path class="cls-2" d="M256.39,223.17l25.78-14.88-4.67-8.08-21.11,12.19-21.12-12.19-4.67,8.08,25.79,14.89Z"/><path class="cls-2" d="M161.36,375.75l-54.88-31.69v-63.38l50.98-29.44-4.67-8.09-55.65,32.13v74.15l64.22,37.08,59.27-34.22-4.67-8.09-54.6,31.53Z"/><path class="cls-2" d="M225.58,302v-26.7l-25.06-14.47-4.67,8.09,20.39,11.77v21.31h9.33Z"/><path class="cls-2" d="M415.36,275.6l-55.38-31.94-4.66,8.09,50.71,29.24,.03,63.38-54.87,31.72-53.66-30.94-4.66,8.09,58.32,33.64,64.2-37.11-.04-74.15Z"/><path class="cls-2" d="M312.37,260.95l-25.45,14.71v25.21h9.35v-19.83l20.77-12.02-4.67-8.08Z"/><path class="cls-2" d="M227.1,120.59l-4.68-8.08,8.08-4.68,4.68,8.08-8.08,4.68Zm55.4-1.92l-26.1-15.07-2.38,1.38-4.68-8.08,7.05-4.08,30.78,17.77-4.67,8.08Zm-41.94-5.89l-4.68-8.08,8.08-4.68,4.68,8.08-8.08,4.68Z"/><path class="cls-2" d="M369.07,358.56l-4.67-8.08,26.09-15.08v-2.75l9.33-.02,.02,8.15-30.76,17.78Zm21.4-32.13l-.02-9.33,9.33-.02,.02,9.34-9.34,.02Zm-.03-15.56l-.02-9.34,9.34-.02,.02,9.33-9.34,.02Z"/><path class="cls-2" d="M146.74,360.05l-34.04-19.58v-9.76h9.33v4.37l29.36,16.88-4.65,8.09Zm-34.04-35.56v-9.34h9.33v9.33h-9.33Zm9.33-15.56h-9.33v-9.34h9.33v9.34Z"/></g></svg>