<?xml version="1.0" encoding="UTF-8"?><svg xmlns="http://www.w3.org/2000/svg" viewBox="0 0 467.6 457.16"><defs><style>.cls-1{fill:#950fa8;}.cls-2{fill:#fff;stroke:#000;stroke-miterlimit:10;}</style></defs><g id="background"><ellipse class="cls-1" cx="233.8" cy="228.58" rx="233.8" ry="228.58"/></g><g id="gamepad"><path class="cls-2" d="M200.05,272.88h-20.57v-20.57c0-2.84-2.3-5.14-5.14-5.14h-20.57c-2.84,0-5.14,2.3-5.14,5.14v20.57h-20.57c-2.84,0-5.14,2.3-5.14,5.14v20.57c0,2.84,2.3,5.14,5.14,5.14h20.57v20.57c0,2.84,2.3,5.14,5.14,5.14h20.57c2.84,0,5.14-2.3,5.14-5.14v-20.57h20.57c2.84,0,5.14-2.3,5.14-5.14v-20.57c0-2.84-2.3-5.14-5.14-5.14Zm-5.14,20.57h-20.57c-2.84,0-5.14,2.3-5.14,5.14v20.57h-10.28v-20.57c0-2.84-2.3-5.14-5.14-5.14h-20.57v-10.28h20.57c2.84,0,5.14-2.3,5.14-5.14v-20.57h10.28v20.57c0,2.84,2.3,5.14,5.14,5.14h20.57v10.28Z"/><path class="cls-2" d="M389.79,278.91c-3.94-35.43-37.22-68.58-72.69-72.36-3.01-.33-6.04-.5-9.07-.51h-56.56v-20.57h-10.28v-10.28c0-11.36-9.21-20.57-20.57-20.57h-25.71c-5.68,0-10.28-4.6-10.28-10.28s4.6-10.28,10.28-10.28h82.27c11.36,0,20.57-9.21,20.57-20.57s-9.21-20.57-20.57-20.57h-25.71c-5.68,0-10.28-4.6-10.28-10.28v-20.57h-10.28v20.57c0,11.36,9.21,20.57,20.57,20.57h25.71c5.68,0,10.28,4.6,10.28,10.28s-4.6,10.28-10.28,10.28h-82.27c-11.36,0-20.57,9.21-20.57,20.57s9.21,20.57,20.57,20.57h25.71c5.68,0,10.28,4.6,10.28,10.28v10.28h-10.28v20.57h-56.56c-3.03,0-6.07,.18-9.08,.51-35.48,3.81-68.74,36.96-72.67,72.39-5.17,45.14,27.24,85.93,72.39,91.09,18.38,2.1,36.94-2.05,52.67-11.79,6.77-4.43,14.51-7.17,22.57-7.98,3.98-.31,7.97-.33,11.96-.04,8.18,.79,16.05,3.56,22.92,8.06,38.65,23.89,89.35,11.92,113.24-26.73,9.72-15.73,13.86-34.27,11.75-52.64Zm-158.89-83.16h10.28v10.28h-10.28v-10.28Zm130.79,140.55c-23.25,26-61.8,31.58-91.47,13.24-8.28-5.39-17.76-8.68-27.61-9.58-2.17-.16-4.36-.24-6.57-.24-2.34,0-4.63,.1-6.93,.28-9.7,.93-19.02,4.18-27.19,9.49-33.81,20.92-78.18,10.47-99.1-23.34-8.52-13.76-12.14-30-10.3-46.08,3.38-30.45,33.07-60.03,63.56-63.3,2.65-.3,5.31-.45,7.98-.46h143.98c2.66,0,5.33,.14,7.98,.43,30.48,3.28,60.16,32.85,63.56,63.3,2.42,20.45-4.09,40.95-17.87,56.25Z"/><path class="cls-2" d="M308.04,236.88c-11.36,0-20.57,9.21-20.57,20.57s9.21,20.57,20.57,20.57,20.57-9.21,20.57-20.57-9.21-20.57-20.57-20.57Zm0,30.85c-5.68,0-10.28-4.6-10.28-10.28s4.6-10.28,10.28-10.28,10.28,4.6,10.28,10.28-4.6,10.28-10.28,10.28Z"/><path class="cls-2" d="M308.04,298.59c-11.36,0-20.57,9.21-20.57,20.57s9.21,20.57,20.57,20.57,20.57-9.21,20.57-20.57-9.21-20.57-20.57-20.57Zm0,30.85c-5.68,0-10.28-4.6-10.28-10.28s4.6-10.28,10.28-10.28,10.28,4.6,10.28,10.28-4.6,10.28-10.28,10.28Z"/><path class="cls-2" d="M272.04,267.74c-11.36,0-20.57,9.21-20.57,20.57s9.21,20.57,20.57,20.57,20.57-9.21,20.57-20.57-9.21-20.57-20.57-20.57Zm0,30.85c-5.68,0-10.28-4.6-10.28-10.28s4.6-10.28,10.28-10.28,10.28,4.6,10.28,10.28-4.6,10.28-10.28,10.28Z"/><path class="cls-2" d="M344.03,267.74c-11.36,0-20.57,9.21-20.57,20.57s9.21,20.57,20.57,20.57,20.57-9.21,20.57-20.57-9.21-20.57-20.57-20.57Zm0,30.85c-5.68,0-10.28-4.6-10.28-10.28s4.6-10.28,10.28-10.28,10.28,4.6,10.28,10.28-4.6,10.28-10.28,10.28Z"/></g></svg>