<?xml version="1.0" encoding="utf-8"?>
<!-- Generator: Adobe Illustrator 26.3.1, SVG Export Plug-In . SVG Version: 6.00 Build 0)  -->
<svg version="1.1" xmlns="http://www.w3.org/2000/svg" xmlns:xlink="http://www.w3.org/1999/xlink" x="0px" y="0px"
	 viewBox="0 0 512 512" style="enable-background:new 0 0 512 512;" xml:space="preserve">
<style type="text/css">
	.st0{fill:#950FA8;}
	.st1{fill:#FFFFFF;stroke:#000000;stroke-miterlimit:10;}
</style>
<g id="Layer_2">
	<ellipse class="st0" cx="256" cy="256" rx="247.3" ry="241.8"/>
</g>
<g id="Layer_1">
	<path class="st1" d="M377.6,334c4.6-5.4,7.4-12.4,7.4-20v-3.3c0-17-13.8-30.8-30.8-30.8s-30.8,13.8-30.8,30.8v3.3
		c0,7.6,2.8,14.6,7.4,20c-11.3,2.9-20.8,10.2-26.6,20c-5.8-9.8-15.3-17.1-26.6-20c4.6-5.4,7.4-12.4,7.4-20v-3.3
		c0-17-13.8-30.8-30.8-30.8s-30.8,13.8-30.8,30.8v3.3c0,7.6,2.8,14.6,7.4,20c-11.3,2.9-20.8,10.2-26.6,20
		c-5.8-9.8-15.3-17.1-26.6-20c4.6-5.4,7.4-12.4,7.4-20v-3.3c0-17-13.8-30.8-30.8-30.8s-30.8,13.8-30.8,30.8v3.3
		c0,7.6,2.8,14.6,7.4,20c-18.8,4.8-32.7,21.9-32.7,42.2v25.7c0,3.4,2.7,6.1,6.1,6.1h300.1c3.4,0,6.1-2.7,6.1-6.1v-25.7
		C410.3,355.9,396.4,338.9,377.6,334z M335.5,310.7c0-10.3,8.4-18.6,18.6-18.6s18.6,8.4,18.6,18.6v3.3c0,10.3-8.4,18.6-18.6,18.6
		s-18.6-8.4-18.6-18.6V310.7z M235.5,310.7c0-10.3,8.4-18.6,18.6-18.6s18.6,8.4,18.6,18.6v3.3c0,10.3-8.4,18.6-18.6,18.6
		s-18.6-8.4-18.6-18.6V310.7z M135.5,310.7c0-10.3,8.4-18.6,18.6-18.6c10.3,0,18.6,8.4,18.6,18.6v3.3c0,10.3-8.4,18.6-18.6,18.6
		c-10.3,0-18.6-8.4-18.6-18.6V310.7z M110.2,376.2c0-17.3,14.1-31.3,31.3-31.3h25.2c17.3,0,31.3,14.1,31.3,31.3v19.6h-87.8V376.2z
		 M210.2,376.2c0-17.3,14.1-31.3,31.3-31.3h25.2c17.3,0,31.3,14.1,31.3,31.3v19.6h-87.8V376.2z M398.1,395.8h-87.8v-19.6
		c0-17.3,14.1-31.3,31.3-31.3h25.2c17.3,0,31.3,14.1,31.3,31.3V395.8z"/>
	<path class="st1" d="M145.2,218.1l-0.1,33.9c0,2.4,1.4,4.5,3.5,5.5c0.8,0.4,1.7,0.6,2.6,0.6c1.4,0,2.8-0.5,3.9-1.4l34.5-28.2h38.1
		l21.8,27.3c1.2,1.5,3,2.3,4.9,2.3c1.9,0,3.7-1,4.8-2.5l19.4-27H319l34.3,28.2c1.8,1.5,4.3,1.8,6.5,0.8c2.1-1,3.5-3.2,3.5-5.5v-34
		c18.9-12.2,30.5-33.2,30.5-55.9c0-36.6-29.8-66.4-66.4-66.4H180.8c-36.6,0-66.4,29.8-66.4,66.4
		C114.5,184.8,126.1,205.9,145.2,218.1z M180.8,107.9h146.6c29.9,0,54.2,24.3,54.2,54.2c0,19.5-10.5,37.5-27.5,47.1
		c-1.9,1.1-3.1,3.1-3.1,5.3V239l-26-21.4c-1.1-0.9-2.5-1.4-3.9-1.4h-45.7c-2,0-3.8,0.9-5,2.5l-16.6,23l-18.6-23.3
		c-1.2-1.4-2.9-2.3-4.8-2.3h-43.2c-1.4,0-2.8,0.5-3.9,1.4L157.3,239l0-24.4c0-2.2-1.2-4.2-3.1-5.3c-17-9.6-27.6-27.7-27.6-47.2
		C126.7,132.2,151,107.9,180.8,107.9z"/>
	<path class="st1" d="M327.4,132.3h0.2h0c3.4,0,6.1-2.7,6.1-6.1c0-3.4-2.7-6.1-6.1-6.1h-0.3c-3.4,0-6.1,2.7-6.1,6.1
		S324.1,132.3,327.4,132.3z"/>
	<path class="st1" d="M347,139.7c6.5,5.7,10.2,13.8,10.2,22.4c0,8.1-3.2,15.7-9.1,21.4c-2.4,2.3-2.5,6.2-0.1,8.6
		c1.2,1.2,2.8,1.9,4.4,1.9c1.5,0,3.1-0.6,4.2-1.7c8.3-8,12.8-18.7,12.8-30.2c0-12.1-5.2-23.6-14.4-31.6c-2.5-2.2-6.4-2-8.6,0.6
		C344.2,133.6,344.5,137.5,347,139.7z"/>
	<path class="st1" d="M235.4,181.3c7.6,7,15.1,12.1,15.4,12.4c1,0.7,2.2,1.1,3.4,1.1c1.2,0,2.4-0.4,3.4-1.1
		c0.3-0.2,7.8-5.3,15.4-12.4c11.2-10.4,16.6-19.2,16.6-27.1c0-13.6-10.4-24.7-23.1-24.7c-4.4,0-8.7,1.4-12.4,3.8
		c-3.7-2.5-8-3.8-12.4-3.8c-12.7,0-23.1,11.1-23.1,24.7C218.7,162.1,224.2,170.9,235.4,181.3z M241.9,141.7c2.9,0,5.7,1.3,7.7,3.7
		c1.2,1.3,2.8,2.1,4.6,2.1c1.8,0,3.5-0.8,4.6-2.1c2.1-2.4,4.8-3.7,7.7-3.7c6,0,10.9,5.6,10.9,12.5c0,6.8-12.9,19.1-23.3,26.9
		c-10.4-7.7-23.3-20-23.3-26.9C230.9,147.3,235.8,141.7,241.9,141.7z"/>
</g>
</svg>
