<?xml version="1.0" encoding="utf-8"?>
<!-- Generator: Adobe Illustrator 26.3.1, SVG Export Plug-In . SVG Version: 6.00 Build 0)  -->
<svg version="1.1" xmlns="http://www.w3.org/2000/svg" xmlns:xlink="http://www.w3.org/1999/xlink" x="0px" y="0px"
	 viewBox="0 0 512 512" style="enable-background:new 0 0 512 512;" xml:space="preserve">
<style type="text/css">
	.st0{fill:#950FA8;}
	.st1{fill:#FFFFFF;stroke:#000000;stroke-miterlimit:10;}
</style>
<g id="Background">
	<ellipse class="st0" cx="256" cy="256.5" rx="247.3" ry="241.8"/>
</g>
<g id="Dollar">
	<g>
		<g>
			<path class="st1" d="M387.7,127.2C352.6,92.9,306,74,256.5,74s-96.1,18.9-131.2,53.2S71,207,71,255.5s19.3,94.1,54.3,128.3
				S207,437,256.5,437s96.1-18.9,131.2-53.2S442,304,442,255.5S422.7,161.4,387.7,127.2z M377.4,373.8c-32.3,31.6-75.2,49-120.9,49
				s-88.6-17.4-120.9-49s-50.1-73.6-50.1-118.3s17.8-86.7,50.1-118.3s75.2-49,120.9-49s88.6,17.4,120.9,49s50.1,73.6,50.1,118.3
				S409.7,342.2,377.4,373.8z"/>
		</g>
	</g>
	<g>
		<g>
			<path class="st1" d="M256.5,125c-73.6,0-133.4,58.6-133.4,130.5c0,3.9,3.3,7.1,7.3,7.1c4,0,7.3-3.2,7.3-7.1
				c0-64.1,53.3-116.3,118.9-116.3c4,0,7.3-3.2,7.3-7.1C263.8,128.1,260.5,125,256.5,125z"/>
		</g>
	</g>
	<g>
		<g>
			<path class="st1" d="M382.7,248.4c-4,0-7.3,3.2-7.3,7.1c0,64.1-53.3,116.3-118.9,116.3c-4,0-7.3,3.2-7.3,7.1
				c0,3.9,3.3,7.1,7.3,7.1c73.6,0,133.4-58.6,133.4-130.5C389.9,251.6,386.7,248.4,382.7,248.4z"/>
		</g>
	</g>
	<g>
		<g>
			<path class="st1" d="M267,248.4h-7.9h-5.1H246c-10.1,0-18.4-8.1-18.4-18v-11.9c0-9.9,8.2-18,18.4-18h23.2
				c8.9,0,16.1,7.1,16.1,15.8c0,3.9,3.3,7.1,7.3,7.1s7.3-3.2,7.3-7.1c0-16.5-13.8-30-30.7-30h-5.5v-17.7c0-3.9-3.3-7.1-7.3-7.1
				c-4,0-7.3,3.2-7.3,7.1v17.7H246c-18.2,0-32.9,14.5-32.9,32.2v11.9c0,17.8,14.8,32.2,32.9,32.2h7.9h5.1h7.9
				c10.1,0,18.4,8.1,18.4,18v11.9c0,9.9-8.2,18-18.4,18h-23.2c-8.9,0-16.1-7.1-16.1-15.8c0-3.9-3.3-7.1-7.3-7.1
				c-4,0-7.3,3.2-7.3,7.1c0,16.5,13.8,30,30.7,30h5.5v17.7c0,3.9,3.3,7.1,7.3,7.1c4,0,7.3-3.2,7.3-7.1v-17.7h3.2
				c18.2,0,32.9-14.5,32.9-32.2v-11.9C299.9,262.8,285.1,248.4,267,248.4z"/>
		</g>
	</g>
	<g>
		<g>
			<ellipse class="st1" cx="282.2" cy="136.4" rx="7.3" ry="7.2"/>
		</g>
	</g>
	<g>
		<g>
			<ellipse class="st1" cx="230.8" cy="375.3" rx="7.3" ry="7.2"/>
		</g>
	</g>
</g>
</svg>
