<?xml version="1.0" encoding="utf-8"?>
<!-- Generator: Adobe Illustrator 26.3.1, SVG Export Plug-In . SVG Version: 6.00 Build 0)  -->
<svg version="1.1" xmlns="http://www.w3.org/2000/svg" xmlns:xlink="http://www.w3.org/1999/xlink" x="0px" y="0px"
	 viewBox="0 0 512 512" style="enable-background:new 0 0 512 512;" xml:space="preserve">
<style type="text/css">
	.st0{fill:#950FA8;}
	.st1{fill:#FFFFFF;stroke:#000000;stroke-miterlimit:10;}
</style>
<g id="Layer_2">
	<ellipse class="st0" cx="256" cy="256.5" rx="247.3" ry="241.8"/>
</g>
<g id="wallet">
	<g>
		<g id="Page-1_6_">
			<g id="_x30_07---Points-Wallet">
				<path id="Shape_48_" class="st1" d="M252.9,101.4c3.1,0,5.5-2.5,5.5-5.5V84.7c0-3.1-2.5-5.5-5.5-5.5c-3.1,0-5.5,2.5-5.5,5.5
					v11.1C247.3,98.9,249.8,101.4,252.9,101.4z"/>
				<path id="Shape_47_" class="st1" d="M286.1,106.9c3.1,0,5.5-2.5,5.5-5.5V90.3c0-3.1-2.5-5.5-5.5-5.5c-3.1,0-5.5,2.5-5.5,5.5
					v11.1C280.6,104.4,283.1,106.9,286.1,106.9z"/>
				<path id="Shape_46_" class="st1" d="M219.6,106.9c3.1,0,5.5-2.5,5.5-5.5V90.3c0-3.1-2.5-5.5-5.5-5.5s-5.5,2.5-5.5,5.5v11.1
					C214,104.4,216.5,106.9,219.6,106.9z"/>
				<path id="Shape_45_" class="st1" d="M130.8,350v34.3c0,15.3,12.4,27.7,27.7,27.7h188.6c15.3,0,27.7-12.4,27.7-27.7V195.7
					c0-15.3-12.4-27.7-27.7-27.7H323c-7.7-32.5-36.7-55.5-70.1-55.5s-62.4,23-70.1,55.5h-24.2c-15.3,0-27.7,12.4-27.7,27.7v78.7
					c-6.6,2.3-11.1,8.6-11.1,15.6v44.4C119.8,341.4,124.2,347.6,130.8,350L130.8,350z M363.8,195.7c0,4.4-1.7,8.7-4.9,11.8
					c-3.1,3.1-7.4,4.9-11.8,4.9h-27.7c3.6-8.8,5.5-18.2,5.5-27.7c0-1.8-0.1-3.7-0.2-5.5h22.4C356.3,179,363.8,186.5,363.8,195.7
					L363.8,195.7z M192.7,174.4c3.9-23.8,21.4-43,44.8-49.1s48,2.1,63.1,20.9s17.6,44.7,6.5,66.1h-21.2l-2.7-16.1
					c-0.1-0.3,0-0.7,0.2-0.9l13-13.2c3.2-3.3,4.3-8,2.9-12.4c-1.3-4.2-5-7.3-9.3-8L272,159c-0.2-0.1-0.4-0.2-0.5-0.4l-8.2-17.2
					c-1.9-4.1-6-6.7-10.5-6.7s-8.6,2.6-10.5,6.7l-8.2,17.3c-0.1,0.2-0.2,0.3-0.4,0.4l-18.2,2.7c-4.4,0.7-7.9,3.8-9.3,8
					c-1.5,4.3-0.4,9.1,2.9,12.4l13,13.1c0.2,0.3,0.3,0.6,0.3,1l-2.7,16.1h-21.2C192.6,200.7,190.5,187.4,192.7,174.4L192.7,174.4
					L192.7,174.4z M230.1,187.5l-13-13.2c-0.3-0.3-0.4-0.7-0.2-1.1c0.1-0.2,0.2-0.5,0.4-0.5l18.3-2.7c3.8-0.7,7-3.1,8.6-6.6
					l8.2-17.3l0.4-0.4l8.6,17.6c1.7,3.5,4.9,6,8.7,6.6l18.2,2.7c0.2,0,0.4,0.3,0.4,0.5c0.1,0.4,0.1,0.8-0.2,1.1l-13.1,13.3
					c-2.7,2.8-3.9,6.7-3.2,10.5l2.4,14.3h-43.6l2.4-14.3C234,194.2,232.8,190.3,230.1,187.5L230.1,187.5z M158.6,179H181
					c-0.1,1.9-0.2,3.7-0.2,5.5c0,9.5,1.9,18.9,5.5,27.7h-27.7c-6,0-11.9,2-16.6,5.7v-22.3C141.9,186.5,149.4,179,158.6,179
					L158.6,179z M158.6,223.4h188.6c6,0,11.9-2,16.6-5.7v166.5c0,9.2-7.5,16.6-16.6,16.6H158.6c-9.2,0-16.6-7.5-16.6-16.6V351h49.9
					c21.4,0,38.8-17.4,38.8-38.8c0-21.4-17.4-38.8-38.8-38.8h-49.9v-33.3C141.9,230.9,149.4,223.4,158.6,223.4L158.6,223.4z
					 M130.8,290c0-3.1,2.5-5.5,5.5-5.5h55.5c15.3,0,27.7,12.4,27.7,27.7c0,15.3-12.4,27.7-27.7,27.7h-55.5c-3.1,0-5.5-2.5-5.5-5.5
					V290z"/>
				<path id="Shape_44_" class="st1" d="M191.8,328.8c9.2,0,16.6-7.5,16.6-16.6s-7.5-16.6-16.6-16.6c-9.2,0-16.6,7.5-16.6,16.6
					S182.6,328.8,191.8,328.8z M191.8,306.6c3.1,0,5.5,2.5,5.5,5.5c0,3.1-2.5,5.5-5.5,5.5c-3.1,0-5.5-2.5-5.5-5.5
					C186.3,309.1,188.8,306.6,191.8,306.6z"/>
				<path id="Shape_43_" class="st1" d="M330.5,245.6h5.5c3.1,0,5.5-2.5,5.5-5.5c0-3.1-2.5-5.5-5.5-5.5h-5.5c-3.1,0-5.5,2.5-5.5,5.5
					C325,243.1,327.4,245.6,330.5,245.6z"/>
				<path id="Shape_42_" class="st1" d="M302.8,245.6h5.5c3.1,0,5.5-2.5,5.5-5.5c0-3.1-2.5-5.5-5.5-5.5h-5.5c-3.1,0-5.5,2.5-5.5,5.5
					C297.2,243.1,299.7,245.6,302.8,245.6z"/>
				<path id="Shape_41_" class="st1" d="M275,245.6h5.5c3.1,0,5.5-2.5,5.5-5.5c0-3.1-2.5-5.5-5.5-5.5H275c-3.1,0-5.5,2.5-5.5,5.5
					C269.5,243.1,272,245.6,275,245.6z"/>
				<path id="Shape_40_" class="st1" d="M247.3,245.6h5.5c3.1,0,5.5-2.5,5.5-5.5c0-3.1-2.5-5.5-5.5-5.5h-5.5c-3.1,0-5.5,2.5-5.5,5.5
					C241.8,243.1,244.2,245.6,247.3,245.6L247.3,245.6z"/>
				<path id="Shape_39_" class="st1" d="M219.6,245.6h5.5c3.1,0,5.5-2.5,5.5-5.5c0-3.1-2.5-5.5-5.5-5.5h-5.5c-3.1,0-5.5,2.5-5.5,5.5
					C214,243.1,216.5,245.6,219.6,245.6z"/>
				<path id="Shape_38_" class="st1" d="M191.8,245.6h5.5c3.1,0,5.5-2.5,5.5-5.5c0-3.1-2.5-5.5-5.5-5.5h-5.5c-3.1,0-5.5,2.5-5.5,5.5
					C186.3,243.1,188.8,245.6,191.8,245.6z"/>
				<path id="Shape_37_" class="st1" d="M164.1,245.6h5.5c3.1,0,5.5-2.5,5.5-5.5c0-3.1-2.5-5.5-5.5-5.5h-5.5c-3.1,0-5.5,2.5-5.5,5.5
					C158.6,243.1,161,245.6,164.1,245.6z"/>
				<path id="Shape_36_" class="st1" d="M330.5,389.8h5.5c3.1,0,5.5-2.5,5.5-5.5c0-3.1-2.5-5.5-5.5-5.5h-5.5c-3.1,0-5.5,2.5-5.5,5.5
					C325,387.3,327.4,389.8,330.5,389.8z"/>
				<path id="Shape_35_" class="st1" d="M302.8,389.8h5.5c3.1,0,5.5-2.5,5.5-5.5c0-3.1-2.5-5.5-5.5-5.5h-5.5c-3.1,0-5.5,2.5-5.5,5.5
					C297.2,387.3,299.7,389.8,302.8,389.8z"/>
				<path id="Shape_34_" class="st1" d="M275,389.8h5.5c3.1,0,5.5-2.5,5.5-5.5c0-3.1-2.5-5.5-5.5-5.5H275c-3.1,0-5.5,2.5-5.5,5.5
					C269.5,387.3,272,389.8,275,389.8z"/>
				<path id="Shape_33_" class="st1" d="M247.3,389.8h5.5c3.1,0,5.5-2.5,5.5-5.5c0-3.1-2.5-5.5-5.5-5.5h-5.5c-3.1,0-5.5,2.5-5.5,5.5
					C241.8,387.3,244.2,389.8,247.3,389.8L247.3,389.8z"/>
				<path id="Shape_32_" class="st1" d="M225.1,378.7h-5.5c-3.1,0-5.5,2.5-5.5,5.5c0,3.1,2.5,5.5,5.5,5.5h5.5c3.1,0,5.5-2.5,5.5-5.5
					C230.7,381.2,228.2,378.7,225.1,378.7z"/>
				<path id="Shape_31_" class="st1" d="M197.4,378.7h-5.5c-3.1,0-5.5,2.5-5.5,5.5c0,3.1,2.5,5.5,5.5,5.5h5.5c3.1,0,5.5-2.5,5.5-5.5
					C202.9,381.2,200.4,378.7,197.4,378.7z"/>
				<path id="Shape_30_" class="st1" d="M169.7,378.7h-5.5c-3.1,0-5.5,2.5-5.5,5.5c0,3.1,2.5,5.5,5.5,5.5h5.5c3.1,0,5.5-2.5,5.5-5.5
					C175.2,381.2,172.7,378.7,169.7,378.7z"/>
			</g>
		</g>
	</g>
</g>
</svg>
