<?xml version="1.0" encoding="utf-8"?>
<!-- Generator: Adobe Illustrator 26.3.1, SVG Export Plug-In . SVG Version: 6.00 Build 0)  -->
<svg version="1.1" xmlns="http://www.w3.org/2000/svg" xmlns:xlink="http://www.w3.org/1999/xlink" x="0px" y="0px"
	 viewBox="0 0 512 512" style="enable-background:new 0 0 512 512;" xml:space="preserve">
<style type="text/css">
	.st0{fill:#950FA8;}
	.st1{fill:#FFFFFF;stroke:#000000;stroke-miterlimit:10;}
</style>
<g id="Layer_2">
	<ellipse class="st0" cx="256" cy="256.5" rx="247.3" ry="241.8"/>
</g>
<g id="coins">
	<g>
		<path class="st1" d="M247.9,247.2c0-34.4-22.1-63.7-52.9-74.5c4.8-8,11.2-15.1,18.7-20.6c2.2-1.6,2.6-4.6,1-6.8
			c-1.6-2.2-4.6-2.6-6.8-1c-9.3,6.8-17,15.7-22.6,25.7c-4.4-0.9-9-1.5-13.7-1.7c7-14.5,17.7-27,31.1-36.2
			c15.6-10.7,33.8-16.4,52.7-16.4c15.8,0,31.5,4.1,45.2,11.7c1.9,1.1,4.3,0.7,5.8-0.8l8-8l2.7,34.5l-34.5-2.7l7-7
			c1.1-1.1,1.6-2.7,1.3-4.3c-0.3-1.6-1.3-2.9-2.8-3.5c-10.3-4.6-21.4-7-32.7-7c-9.4,0-18.5,1.6-27.3,4.8c-2.5,0.9-3.8,3.7-2.9,6.2
			c0.9,2.5,3.7,3.8,6.2,2.9c7.7-2.8,15.7-4.2,24-4.2c7.6,0,15,1.2,22.1,3.5l-2.5,2.5c-2.6,2.6-3.4,6.3-2.1,9.7
			c1.3,3.4,4.3,5.7,7.9,6l36.1,2.8c2.7,0.2,5.3-0.8,7.2-2.7c1.9-1.9,2.9-4.5,2.7-7.2l-2.8-36.1c-0.3-3.6-2.6-6.7-6-7.9
			c-3.4-1.3-7.1-0.4-9.7,2.1l-6.2,6.2c-14.4-7.4-30.5-11.2-46.7-11.2c-20.9,0-41.1,6.3-58.2,18.1c-16.2,11.2-28.8,26.6-36.4,44.6
			c-39.7,4.1-70.8,37.7-70.8,78.5c0,43.5,35.4,78.9,78.9,78.9S247.9,290.8,247.9,247.2L247.9,247.2z M168.9,316.5
			c-38.2,0-69.2-31.1-69.2-69.2s31.1-69.2,69.2-69.2s69.2,31.1,69.2,69.2S207.1,316.5,168.9,316.5z"/>
		<path class="st1" d="M342.1,190.9c-31,0-56.3,25.2-56.3,56.3s25.3,56.3,56.3,56.3s56.3-25.2,56.3-56.3S373.1,190.9,342.1,190.9z
			 M342.1,293.8c-25.7,0-46.6-20.9-46.6-46.6s20.9-46.6,46.6-46.6c25.7,0,46.6,20.9,46.6,46.6S367.7,293.8,342.1,293.8z"/>
		<path class="st1" d="M421,247.2c0-43.5-35.4-78.9-78.9-78.9s-78.9,35.4-78.9,78.9c0,34.4,22.1,63.8,52.9,74.5
			c-12.7,21.3-35.5,34.4-60.5,34.4c-7.6,0-15-1.2-22.1-3.5l2.5-2.5c2.6-2.6,3.4-6.3,2.1-9.7c-1.3-3.4-4.3-5.7-7.9-6l-36.1-2.8
			c-2.7-0.2-5.3,0.8-7.2,2.7c-1.9,1.9-2.9,4.5-2.7,7.2l2.8,36.1c0.3,3.6,2.6,6.7,6,7.9c3.4,1.3,7.1,0.4,9.7-2.1l6.2-6.2
			c14.4,7.4,30.5,11.2,46.7,11.2c24.7,0,48.6-8.9,67.2-25.1c2-1.8,2.2-4.8,0.5-6.8c-1.8-2-4.8-2.2-6.8-0.5
			c-16.9,14.6-38.5,22.7-60.9,22.7c-15.8,0-31.4-4.1-45.2-11.8c-1.9-1.1-4.3-0.7-5.8,0.8l-8,8l-2.7-34.5l34.5,2.7l-7,7
			c-1.1,1.1-1.6,2.7-1.3,4.3c0.3,1.6,1.3,2.9,2.8,3.5c10.3,4.6,21.4,7,32.7,7c15.1,0,29.9-4.2,42.6-12.3c11.5-7.2,21-17.3,27.5-29.1
			c4.4,0.9,9,1.5,13.7,1.7c-2.6,5.3-5.7,10.4-9.3,15.2c-1.6,2.1-1.2,5.2,1,6.8c0.9,0.7,1.9,1,2.9,1c1.5,0,2.9-0.7,3.9-1.9
			c4.9-6.6,9.1-13.8,12.3-21.4C389.9,321.7,421,288,421,247.2L421,247.2z M342.1,316.5c-38.2,0-69.2-31.1-69.2-69.2
			s31.1-69.2,69.2-69.2c38.2,0,69.2,31.1,69.2,69.2S380.2,316.5,342.1,316.5z"/>
		<path class="st1" d="M203.1,238.7c-1-2.9-3.5-5.1-6.5-5.5l-14.2-2.1l-6.3-12.9c-1.4-2.8-4.1-4.5-7.2-4.5c-3.1,0-5.9,1.7-7.2,4.5
			l-6.3,12.9l-14.2,2.1c-3.1,0.4-5.6,2.6-6.5,5.5c-1,2.9-0.2,6.1,2,8.3l10.3,10l-2.4,14.1c-0.5,3.1,0.7,6.1,3.2,7.9
			c1.4,1,3.1,1.6,4.7,1.6c1.3,0,2.6-0.3,3.8-0.9l12.7-6.7l12.7,6.7c2.7,1.4,6,1.2,8.5-0.6c2.5-1.8,3.7-4.9,3.2-7.9l-2.4-14.1
			l10.3-10C203.3,244.9,204.1,241.7,203.1,238.7L203.1,238.7z M183.4,250.7c-1.9,1.9-2.8,4.5-2.3,7.2l2,11.7l-10.5-5.5
			c-2.4-1.2-5.2-1.2-7.5,0l-10.5,5.5l2-11.7c0.4-2.6-0.4-5.3-2.3-7.2l-8.5-8.3l11.8-1.7c2.6-0.4,4.9-2,6.1-4.4l5.3-10.7l5.3,10.7
			c1.2,2.4,3.5,4,6.1,4.4l11.8,1.7L183.4,250.7z"/>
		<path class="st1" d="M348.6,242.4c-4.4-1.6-9.3-3.5-12.1-5.6c-0.9-0.7-1.3-2.2-0.9-3.9c0.3-1.7,1.4-3.7,3.7-4.4
			c5.4-1.6,9.4,1.8,9.6,2c2,1.8,5,1.7,6.8-0.3c1.8-2,1.7-5-0.2-6.9c-0.2-0.2-3.6-3.3-8.8-4.5v-2.2c0-2.7-2.2-4.8-4.8-4.8
			c-2.7,0-4.8,2.2-4.8,4.8v2.3c-0.2,0-0.3,0.1-0.5,0.1c-5.3,1.6-9.3,6.2-10.4,11.9c-1,5.3,0.7,10.4,4.5,13.3
			c3.1,2.4,7.4,4.5,14.8,7.1c5,1.8,4.9,5.8,4.6,7.4c-0.6,3.3-3.4,6.9-8.2,7c-4.7,0-6.2-0.2-9.8-2.6c-2.2-1.5-5.2-0.8-6.7,1.4
			c-1.5,2.2-0.8,5.2,1.4,6.7c3.9,2.6,6.8,3.6,10.3,4v2.3c0,2.7,2.2,4.8,4.8,4.8c2.7,0,4.8-2.2,4.8-4.8V275c7.2-2,11.9-8.2,12.9-14.4
			C360.9,252.5,356.5,245.2,348.6,242.4L348.6,242.4z"/>
		<path class="st1" d="M168.9,190.9c-26.6,0-49.8,18.9-55.1,44.9c-0.5,2.6,1.2,5.2,3.8,5.7c2.6,0.5,5.2-1.2,5.7-3.8
			c4.4-21.6,23.6-37.2,45.6-37.2c25.7,0,46.6,20.9,46.6,46.6s-20.9,46.6-46.6,46.6c-21.9,0-41.1-15.6-45.6-37
			c-0.5-2.6-3.1-4.3-5.7-3.8c-2.6,0.5-4.3,3.1-3.8,5.7c5.4,25.9,28.6,44.7,55.1,44.7c31,0,56.3-25.2,56.3-56.3
			S200,190.9,168.9,190.9L168.9,190.9z"/>
	</g>
</g>
</svg>
