<?xml version="1.0" encoding="utf-8"?>
<!-- Generator: Adobe Illustrator 26.0.2, SVG Export Plug-In . SVG Version: 6.00 Build 0)  -->
<svg version="1.1" id="Layer_1" xmlns="http://www.w3.org/2000/svg" xmlns:xlink="http://www.w3.org/1999/xlink" x="16px" y="16px"
	 viewBox="0 0 3000 3000" style="enable-background:new 0 0 3000 3000;" xml:space="preserve">
<style type="text/css">
	.st0{fill:#BA90C2;}
	.st1{fill:#FFFFFF;}
</style>
<g>
	<g>
		<path class="st0" d="M2488.2,1523.4h-70.7l0,0c-38.4,0-69.5,31.1-69.5,69.5v0v276h69.5v-276h70.7v276h69.5v-276v0
			C2557.7,1554.5,2526.6,1523.4,2488.2,1523.4L2488.2,1523.4z"/>
		<path class="st0" d="M1455.9,1662v-69.1c0-19.2-7.8-36.6-20.4-49.1c-12.6-12.6-30-20.4-49.1-20.4h-70.7
			c-19.2,0-36.6,7.8-49.1,20.4s-20.4,30-20.4,49.1v206.5c0,19.2,7.8,36.6,20.4,49.1c12.6,12.6,30,20.4,49.1,20.4h70.7
			c19.2,0,36.6-7.8,49.1-20.4c12.6-12.6,20.4-29.9,20.4-49.1v-67.7h-69.5v67.7h-70.7v-206.5h70.7v69.1H1455.9z"/>
		<rect x="2211" y="1525.6" class="st0" width="69.5" height="341"/>
		<path class="st0" d="M2123.5,1543.7c-12.6-12.6-30-20.4-49.1-20.4h-70.7c-19.2,0-36.6,7.8-49.1,20.4c-12.6,12.6-20.4,30-20.4,49.1
			v104.8v69.5v101.7h69.5v-101.7h70.7v101.7h69.5v-101.7v-69.5v-104.8C2143.9,1573.7,2136.1,1556.3,2123.5,1543.7z M2003.7,1697.6
			v-104.8h70.7v104.8H2003.7z"/>
		<g>
			<path class="st0" d="M1591.6,1525.8L1591.6,1525.8c-39.1,0-70.8,31.7-70.8,70.8v201.8c0,39.1,31.7,70.8,70.8,70.8h0V1525.8z"/>
			<path class="st0" d="M1799.1,1525.8L1799.1,1525.8c39.1,0,70.8,31.7,70.8,70.8v201.8c0,39.1-31.7,70.8-70.8,70.8h0V1525.8z"/>
			<path class="st0" d="M1694.3,1972.7L1694.3,1972.7c-19.6,0-35.4-15.9-35.4-35.4v-205.9h70.8v205.9
				C1729.7,1956.8,1713.9,1972.7,1694.3,1972.7z"/>
			<path class="st0" d="M1694.3,1419.6L1694.3,1419.6c19.6,0,35.4,15.9,35.4,35.4v205.9h-70.8V1455
				C1658.9,1435.4,1674.7,1419.6,1694.3,1419.6z"/>
		</g>
	</g>
	<g>
		<g>
			<path class="st0" d="M553.9,1110.1v150.2h115.2v-150.2H553.9z M667.7,1258.9H555.3v-147.4h112.4V1258.9z M553.9,1110.1v150.2
				h115.2v-150.2H553.9z M667.7,1258.9H555.3v-147.4h112.4V1258.9z M513.2,1040.7l-0.2,0.2c-6.5,6.9-12.8,13.2-18.5,18.8
				c-5.5,5.3-11.1,10.8-16.7,16.4c-5.2,5.2-10.5,10.6-16.4,16.7c-5.2,5.4-11.2,11.3-18.4,18.2c-0.1,0.1-0.3,0.3-0.5,0.4l-0.2,0.2
				v370l0.2,0.2c0.4,0.4,0.8,0.8,1.2,1.2c4.5,4.4,8.4,8.2,11.8,11.5c4,3.8,7.7,7.5,11.1,11.1c3.6,3.8,7.3,7.5,11.1,11.2
				c3.8,3.6,8,7.9,12.5,12.8l0.2,0.2h64.9v-200.1h112.4v128.8h64.9l0.2-0.2c4.7-5,8.7-9.2,12.5-12.7c3.8-3.6,7.5-7.4,11.2-11.2
				c3.5-3.7,7.2-7.4,11.1-11.1c3.4-3.2,7.2-7.1,11.8-11.5c0.4-0.4,0.8-0.8,1.3-1.3l0.2-0.2v-369.6H513.2z M779.2,1409.8
				c-5,5-9.2,9.1-12.8,12.5c-3.8,3.7-7.6,7.4-11.2,11.2c-3.6,3.8-7.3,7.5-11.1,11.1c-3.7,3.5-7.7,7.6-12.3,12.6h-62.8v-128.8H553.9
				v200.1H491c-4.4-4.8-8.5-9-12.3-12.6c-3.8-3.6-7.5-7.3-11.1-11.1c-3.4-3.6-7.1-7.3-11.2-11.1c-3.7-3.6-7.9-7.7-12.8-12.6v-368.8
				c7.3-7,13.4-12.9,18.7-18.4c5.8-6.1,11.2-11.5,16.4-16.7c5.6-5.6,11.2-11.1,16.6-16.4c5.8-5.6,12-11.9,18.4-18.7h265.5V1409.8z
				 M553.9,1110.1v150.2h115.2v-150.2H553.9z M667.7,1258.9H555.3v-147.4h112.4V1258.9z"/>
		</g>
		<g>
			<path class="st0" d="M935.2,1110.1v150.2h115.2v-150.2H935.2z M1049,1258.9H936.6v-147.4H1049V1258.9z M935.2,1110.1v150.2h115.2
				v-150.2H935.2z M1049,1258.9H936.6v-147.4H1049V1258.9z M1174.7,1426.8l-62.1-119.4l-0.7-1.4l-4.2-8l-0.7-1.4l-4.2-8
				c1.4-1.4,2.9-2.8,4.3-4.2c7.9-7.7,15.7-15.4,23.3-22.9l31.6-31.6v-189.2H894.6l-70.9,70.9v346.9h64.8l46.8-46.8l1.4-1.4v-80.7
				h67.1l66.5,128.4l0.2,0.4h105v-30.3L1174.7,1426.8z M1173.9,1457.1h-102.6l-66.4-128.4l-0.2-0.4h-69.4v81.5l-47.3,47.3h-62.8
				v-344.8l70.1-70.1h265.5v187.2l-31.2,31.2c-7.5,7.5-15.2,15.1-23,22.6c-1.6,1.6-3.3,3.3-5,4.9l-0.4,0.4l4.9,9.4l0.7,1.4l4.2,8
				l0.7,1.4l62.5,120.1V1457.1z M935.2,1110.1v150.2h115.2v-150.2H935.2z M1049,1258.9H936.6v-147.4H1049V1258.9z"/>
		</g>
		<g>
			<path class="st0" d="M1489.9,1072.6l-0.5-0.5c-6-6-11-11.2-15-15.4c-4.1-4.3-9.3-9.6-15.6-15.8l-0.2-0.2h-254.2v346.9l1.4,1.4
				l69.5,69.5h214.7v-70.8h-172.7v-276.2h172.7v-38.7L1489.9,1072.6z M1488.7,1110.1h-172.6v279h172.6v68H1276l-70.1-70.1v-344.8
				H1458c6.2,6.1,11.3,11.4,15.4,15.6c4.1,4.3,9.2,9.5,15.3,15.6V1110.1z"/>
		</g>
		<g>
			<path class="st0" d="M1636.4,1110.1v150.2h115.2v-150.2H1636.4z M1750.2,1258.9h-112.4v-147.4h112.4V1258.9z M1636.4,1110.1
				v150.2h115.2v-150.2H1636.4z M1750.2,1258.9h-112.4v-147.4h112.4V1258.9z M1595.7,1040.7l-0.2,0.2c-6.6,6.9-12.8,13.2-18.6,18.8
				c-5.5,5.3-11.1,10.8-16.7,16.4c-5.2,5.3-10.7,10.9-16.4,16.7c-5.3,5.5-11.4,11.4-18.4,18.1c-0.1,0.1-0.3,0.3-0.5,0.5l-0.2,0.2
				v346.9h113v-128.8h112.4v128.8h64.9l0.2-0.2c4.4-4.8,8.6-9.1,12.5-12.8c3.8-3.6,7.5-7.3,11.1-11.1c3.5-3.7,7.2-7.4,11.1-11.1
				c3.5-3.4,7.4-7.1,11.8-11.6c0.4-0.4,0.8-0.8,1.2-1.2l0.2-0.2v-369.6H1595.7z M1861.8,1409.8c-4.8,4.8-9,8.9-12.8,12.5
				c-3.9,3.7-7.6,7.4-11.2,11.2c-3.6,3.8-7.3,7.5-11.1,11.1c-3.8,3.6-7.9,7.8-12.3,12.6h-62.8v-128.8h-115.2v128.8h-110.2v-344.8
				c7.1-6.8,13.2-12.8,18.6-18.4c5.7-5.8,11.2-11.4,16.4-16.7c5.6-5.6,11.2-11.1,16.7-16.4c5.7-5.6,11.9-11.8,18.4-18.6h265.5
				V1409.8z M1636.4,1110.1v150.2h115.2v-150.2H1636.4z M1750.2,1258.9h-112.4v-147.4h112.4V1258.9z"/>
		</g>
		<g>
			<path class="st0" d="M2017.8,1110.1v279h104.7v-279H2017.8z M2121,1387.7h-101.9v-276.2H2121V1387.7z M2017.8,1110.1v279h104.7
				v-279H2017.8z M2121,1387.7h-101.9v-276.2H2121V1387.7z M2165.3,1040.7h-259.1v417.8h256.9l70.9-70.9v-278.2L2165.3,1040.7z
				 M2232.6,1387l-70.1,70.1h-254.9v-414.9h257.1l67.9,67.9V1387z M2017.8,1110.1v279h104.7v-279H2017.8z M2121,1387.7h-101.9
				v-276.2H2121V1387.7z"/>
		</g>
		<g>
			<path class="st0" d="M2556.9,1072.6c-0.1-0.1-0.3-0.3-0.5-0.5c-6-6-11-11.1-15-15.4c-4.1-4.3-9.3-9.6-15.6-15.8l-0.2-0.2h-254.1
				v346.9l1.4,1.4l69.5,69.5h214.7v-70.8h-172.7v-113h102.3l30.6-30.6l1.4-1.4v-39.3h-134.4v-91.9h172.7v-38.7L2556.9,1072.6z
				 M2555.7,1110.1h-172.6v94.7h134.3v37.3l-31.2,31.2h-103.1v115.8h172.6v68H2343l-70.1-70.1v-344.8H2525
				c6.1,6.1,11.3,11.4,15.3,15.6c4.1,4.3,9.3,9.5,15.4,15.6V1110.1z"/>
		</g>
	</g>
	<g>
		<g>
			<path class="st0" d="M553.9,1124.2v150.2h115.2v-150.2H553.9z M667.7,1273H555.3v-147.3h112.4V1273z M553.9,1124.2v150.2h115.2
				v-150.2H553.9z M667.7,1273H555.3v-147.3h112.4V1273z M513.2,1054.8l-0.2,0.2c-6.5,6.9-12.8,13.2-18.5,18.8
				c-5.5,5.3-11.1,10.8-16.7,16.4c-5.1,5.1-10.5,10.6-16.4,16.7c-5,5.2-10.8,10.9-17.6,17.4c-0.2,0.2-0.5,0.4-0.7,0.7
				c-0.1,0.1-0.3,0.3-0.5,0.4l-0.2,0.2v370.1l0.2,0.2l1.2,1.2c4.5,4.4,8.4,8.2,11.8,11.5c4,3.8,7.7,7.5,11.1,11.1
				c3.6,3.8,7.3,7.5,11.1,11.1c3.8,3.6,8,7.9,12.5,12.8l0.2,0.2h64.9v-200.2h112.4v128.8h64.9l0.2-0.2c4.7-5,8.7-9.2,12.5-12.7
				c3.8-3.6,7.5-7.3,11.2-11.2c3.5-3.7,7.2-7.4,11.1-11.1c3.4-3.2,7.2-7,11.8-11.5l1.3-1.3l0.2-0.2v-369.6H513.2z M779.2,1423.9
				c-5,5-9.2,9.1-12.8,12.5c-3.9,3.7-7.6,7.4-11.2,11.2c-3.6,3.8-7.3,7.5-11.1,11.1c-3.7,3.5-7.7,7.6-12.3,12.6h-62.8v-128.8H553.9
				v200.1H491c-4.4-4.8-8.5-9-12.3-12.6c-3.7-3.6-7.5-7.3-11.1-11.1c-3.4-3.6-7.1-7.3-11.2-11.1c-3.7-3.6-7.9-7.7-12.8-12.6v-368.8
				c7.3-6.9,13.4-12.9,18.7-18.4c5.9-6.1,11.3-11.5,16.4-16.7c5.6-5.6,11.2-11.1,16.6-16.4c5.8-5.6,12-11.8,18.4-18.6h265.5V1423.9z
				 M553.9,1124.2v150.2h115.2v-150.2H553.9z M667.7,1273H555.3v-147.3h112.4V1273z"/>
		</g>
		<g>
			<path class="st0" d="M935.2,1124.2v150.2h115.2v-150.2H935.2z M1049,1273H936.6v-147.4H1049V1273z M935.2,1124.2v150.2h115.2
				v-150.2H935.2z M1049,1273H936.6v-147.4H1049V1273z M1174.7,1440.9l-0.7-1.4l-66.2-127.4l-0.7-1.4l-4.2-8
				c1.3-1.2,2.5-2.4,3.8-3.7c0.4-0.3,0.8-0.7,1.1-1.1c1.4-1.4,2.9-2.8,4.3-4.2c6.3-6.1,12.5-12.2,18.5-18.2l30.1-30.1l1.4-1.4
				v-189.2H894.6l-69.5,69.6l-0.7,0.7l-0.7,0.7v346.8h64.8l46.8-46.8l1.4-1.4v-80.7h67.1l66.5,128.4l0.2,0.4h105v-30.3
				L1174.7,1440.9z M1173.9,1471.2h-102.6l-66.4-128.4l-0.2-0.4h-69.4v81.5l-47.3,47.3h-62.8v-344.8l70.1-70.1h265.5v187.2
				l-31.2,31.2c-5.9,5.9-12,11.9-18.1,17.9c-1.4,1.4-2.8,2.8-4.3,4.2c-0.3,0.3-0.7,0.7-1.1,1.1c-1.5,1.4-3,2.9-4.5,4.3l-0.4,0.4
				l4.9,9.4l0.7,1.4l67.3,129.5V1471.2z M935.2,1124.2v150.2h115.2v-150.2H935.2z M1049,1273H936.6v-147.4H1049V1273z"/>
		</g>
		<g>
			<path class="st0" d="M1489.9,1086.7c-0.1-0.1-0.3-0.3-0.5-0.5c-0.2-0.2-0.5-0.5-0.7-0.7c-5.7-5.7-10.5-10.6-14.3-14.6
				c-4.1-4.3-9.3-9.6-15.6-15.8l-0.2-0.2h-254.2v346.9l1.4,1.4l69.5,69.5h214.7v-70.8h-172.7v-276.2h172.7v-38.7L1489.9,1086.7z
				 M1488.7,1124.2h-172.6v279h172.6v68H1276l-70.1-70.1v-344.8H1458c6.1,6.1,11.3,11.4,15.4,15.6c4,4.2,9.2,9.5,15.3,15.6V1124.2z"
				/>
		</g>
		<g>
			<path class="st0" d="M1636.4,1124.2v150.2h115.2v-150.2H1636.4z M1750.2,1273h-112.4v-147.4h112.4V1273z M1636.4,1124.2v150.2
				h115.2v-150.2H1636.4z M1750.2,1273h-112.4v-147.4h112.4V1273z M1595.7,1054.8l-0.2,0.2c-6.6,6.9-12.8,13.2-18.6,18.8
				c-5.5,5.3-11.1,10.8-16.7,16.4c-5.2,5.3-10.7,10.9-16.4,16.7c-5.2,5.3-11,11.1-17.6,17.4c-0.2,0.2-0.5,0.4-0.7,0.7
				c-0.1,0.1-0.3,0.3-0.5,0.5l-0.2,0.2v346.9h113v-128.8h112.4v128.8h64.9l0.2-0.2c4.4-4.8,8.6-9.1,12.5-12.7
				c3.8-3.6,7.5-7.3,11.1-11.2c3.5-3.7,7.2-7.4,11.1-11.1c3.5-3.4,7.4-7.1,11.8-11.6c0.4-0.4,0.8-0.8,1.2-1.2l0.2-0.2v-369.6H1595.7
				z M1861.8,1423.9c-4.9,4.8-9.1,8.9-12.8,12.5c-3.9,3.7-7.6,7.4-11.2,11.2c-3.6,3.8-7.3,7.5-11.1,11.1c-3.8,3.6-7.9,7.9-12.3,12.6
				h-62.8v-128.8h-115.2v128.8h-110.2v-344.8c7.1-6.8,13.2-12.8,18.6-18.4c5.7-5.8,11.2-11.4,16.4-16.7c5.6-5.6,11.2-11.1,16.7-16.4
				c5.7-5.5,11.9-11.8,18.4-18.6h265.5V1423.9z M1636.4,1124.2v150.2h115.2v-150.2H1636.4z M1750.2,1273h-112.4v-147.4h112.4V1273z"
				/>
		</g>
		<g>
			<path class="st0" d="M2017.8,1124.2v279h104.7v-279H2017.8z M2121,1401.8h-101.9v-276.2H2121V1401.8z M2017.8,1124.2v279h104.7
				v-279H2017.8z M2121,1401.8h-101.9v-276.2H2121V1401.8z M2233.3,1122.9l-0.7-0.7l-67.3-67.3h-259.1v417.8h256.9l70.9-70.9v-278.2
				L2233.3,1122.9z M2232.6,1401.1l-70.1,70.1h-254.9v-414.9h257.1l67.9,67.9V1401.1z M2017.8,1124.2v279h104.7v-279H2017.8z
				 M2121,1401.8h-101.9v-276.2H2121V1401.8z"/>
		</g>
		<g>
			<path class="st0" d="M2556.9,1086.7c-0.1-0.1-0.3-0.3-0.5-0.5c-0.2-0.2-0.5-0.5-0.7-0.7c-5.7-5.7-10.5-10.6-14.3-14.6
				c-4.1-4.3-9.4-9.6-15.6-15.8l-0.2-0.2h-254.1v346.9l1.4,1.4l69.5,69.5h214.7v-70.8h-172.7v-112.9h102.3l30.6-30.6l1.4-1.4v-39.3
				h-134.4v-91.9h172.7v-38.7L2556.9,1086.7z M2555.7,1124.2h-172.6v94.7h134.3v37.3l-31.2,31.2h-103.1v115.8h172.6v68H2343
				l-70.1-70.1v-344.8H2525c6.1,6.1,11.3,11.4,15.3,15.6c4.1,4.2,9.2,9.5,15.4,15.6V1124.2z"/>
		</g>
	</g>
	<g>
		<g>
			<path class="st0" d="M553.9,1138.3v150.2h115.2v-150.2H553.9z M667.7,1287.1H555.3v-147.3h112.4V1287.1z M553.9,1138.3v150.2
				h115.2v-150.2H553.9z M667.7,1287.1H555.3v-147.3h112.4V1287.1z M513.2,1068.9l-0.2,0.2c-6.5,6.9-12.8,13.2-18.5,18.8
				c-5.5,5.3-11.1,10.8-16.7,16.4c-5.2,5.1-10.5,10.6-16.4,16.6c-5,5.2-10.8,10.9-17.6,17.4c-0.2,0.2-0.5,0.4-0.7,0.7
				c-0.1,0.1-0.3,0.3-0.5,0.4l-0.2,0.2v370.1l0.2,0.2c5,5,9.2,9.1,13,12.8c4,3.8,7.7,7.5,11.1,11.1c3.6,3.8,7.3,7.5,11.1,11.1
				c3.8,3.6,8,7.9,12.5,12.8l0.2,0.2h64.9V1358h112.4v128.8h64.9l0.2-0.2c4.7-5,8.7-9.2,12.5-12.7c3.8-3.6,7.5-7.3,11.2-11.2
				c3.5-3.7,7.2-7.4,11.1-11.1c3.7-3.5,8-7.7,13.1-12.8l0.2-0.2v-369.6H513.2z M779.2,1438c-5,5-9.2,9.1-12.8,12.6
				c-3.8,3.6-7.6,7.4-11.2,11.1c-3.6,3.8-7.3,7.5-11.1,11.1c-3.7,3.5-7.7,7.6-12.3,12.6h-62.8v-128.8H553.9v200.1H491
				c-4.4-4.8-8.5-9-12.3-12.6c-3.8-3.6-7.5-7.3-11.1-11.1c-3.4-3.6-7.1-7.3-11.2-11.1c-3.7-3.6-7.9-7.7-12.8-12.6v-368.8
				c7.3-6.9,13.4-12.9,18.7-18.4c5.8-6,11.2-11.5,16.4-16.7c5.6-5.6,11.2-11.1,16.6-16.3c5.8-5.6,12-11.9,18.4-18.7h265.5V1438z
				 M553.9,1138.3v150.2h115.2v-150.2H553.9z M667.7,1287.1H555.3v-147.3h112.4V1287.1z"/>
		</g>
		<g>
			<path class="st0" d="M935.2,1138.3v150.2h115.2v-150.2H935.2z M1049,1287.1H936.6v-147.3H1049V1287.1z M935.2,1138.3v150.2h115.2
				v-150.2H935.2z M1049,1287.1H936.6v-147.3H1049V1287.1z M1173.9,1453.6v31.7h-102.6l-66.4-128.4l-0.2-0.4h-69.4v81.5l-47.3,47.3
				h-62.8v-344.9l70.1-70.1h265.5v187.2l-31.2,31.2c-4.3,4.3-8.7,8.7-13.2,13.1c-1.4,1.4-2.9,2.8-4.3,4.2c-0.3,0.4-0.7,0.7-1.1,1.1
				c-1.3,1.3-2.5,2.5-3.8,3.7c-0.3,0.4-0.7,0.7-1.1,1.1l-4.5,4.3l-0.4,0.4l66.1,127.1h1.6l-65.9-126.8c1.3-1.2,2.5-2.4,3.8-3.7
				c0.4-0.3,0.8-0.7,1.1-1.1c1.3-1.2,2.5-2.4,3.8-3.7c0.4-0.3,0.8-0.7,1.1-1.1c1.4-1.4,2.9-2.8,4.3-4.2c4.6-4.5,9.1-9,13.6-13.5
				l31.6-31.5v-189.2H894.6l-69.5,69.6l-0.7,0.7l-0.7,0.7v346.8h64.8l48.2-48.2V1358h67.1l66.5,128.4l0.2,0.4h105v-30.3
				L1173.9,1453.6z M935.2,1138.3v150.2h115.2v-150.2H935.2z M1049,1287.1H936.6v-147.3H1049V1287.1z"/>
		</g>
		<g>
			<path class="st0" d="M1489.9,1100.8c-0.4-0.4-0.8-0.8-1.2-1.2c-1-1-1.9-2-2.8-2.9c-4.4-4.5-8.3-8.4-11.4-11.7
				c-4.1-4.3-9.3-9.6-15.6-15.8l-0.2-0.2h-254.2v346.9l71,70.9h214.7v-70.8h-172.7v-276.1h172.7V1101L1489.9,1100.8z M1488.7,1138.3
				h-172.6v279h172.6v68H1276l-70.1-70.1v-344.9H1458c6.1,6.1,11.3,11.4,15.4,15.6c2.9,3,6.4,6.7,10.4,10.7l4.9,4.9V1138.3z"/>
		</g>
		<g>
			<path class="st0" d="M1636.4,1138.3v150.2h115.2v-150.2H1636.4z M1750.2,1287.1h-112.4v-147.3h112.4V1287.1z M1636.4,1138.3
				v150.2h115.2v-150.2H1636.4z M1750.2,1287.1h-112.4v-147.3h112.4V1287.1z M1595.7,1068.9l-0.2,0.2c-6.6,7-12.8,13.3-18.6,18.8
				c-5.5,5.3-11.1,10.8-16.7,16.4c-5.2,5.2-10.7,10.8-16.4,16.6c-5.2,5.4-11,11.1-17.6,17.4c-0.2,0.2-0.5,0.5-0.7,0.7l-0.5,0.5
				l-0.2,0.2v346.9h113V1358h112.4v128.8h64.9l0.2-0.2c4.4-4.8,8.6-9.1,12.5-12.7c3.8-3.6,7.5-7.3,11.1-11.2
				c3.5-3.7,7.2-7.4,11.1-11.1c3.8-3.6,8.2-7.9,13-12.8l0.2-0.2v-369.6H1595.7z M1861.8,1438c-4.8,4.8-9.1,9-12.8,12.6
				c-3.9,3.7-7.6,7.4-11.2,11.1c-3.6,3.8-7.3,7.5-11.1,11.1c-3.8,3.6-7.9,7.9-12.3,12.6h-62.8v-128.8h-115.2v128.8h-110.2v-344.9
				c7.1-6.8,13.2-12.8,18.6-18.4c5.7-5.8,11.2-11.4,16.4-16.7c5.6-5.6,11.2-11.1,16.7-16.4c5.7-5.5,11.9-11.8,18.4-18.6h265.5V1438z
				 M1636.4,1138.3v150.2h115.2v-150.2H1636.4z M1750.2,1287.1h-112.4v-147.3h112.4V1287.1z"/>
		</g>
		<g>
			<path class="st0" d="M2017.8,1138.3v279h104.7v-279H2017.8z M2121,1415.9h-101.9v-276.1H2121V1415.9z M2017.8,1138.3v279h104.7
				v-279H2017.8z M2121,1415.9h-101.9v-276.1H2121V1415.9z M2233.3,1137l-0.7-0.7l-67.3-67.3h-259.1v417.8h256.9l70.9-70.9v-278.2
				L2233.3,1137z M2232.6,1415.2l-70.1,70.1h-254.9v-414.9h257.1l67.9,67.9V1415.2z M2017.8,1138.3v279h104.7v-279H2017.8z
				 M2121,1415.9h-101.9v-276.1H2121V1415.9z"/>
		</g>
		<g>
			<path class="st0" d="M2556.9,1100.8l-1.2-1.2c-1-1-1.9-1.9-2.8-2.9c-4.4-4.4-8.3-8.4-11.4-11.7c-4.1-4.3-9.4-9.6-15.6-15.8
				l-0.2-0.2h-254.1v346.9l71,70.9h214.7v-70.8h-172.7V1303h102.3l32.1-32.1v-39.3h-134.4v-91.8h172.7V1101L2556.9,1100.8z
				 M2555.7,1138.3h-172.6v94.7h134.3v37.3l-31.2,31.2h-103.1v115.8h172.6v68H2343l-70.1-70.1v-344.9H2525
				c6.1,6.1,11.3,11.4,15.3,15.6c2.9,3,6.5,6.7,10.5,10.7c1.5,1.5,3.2,3.2,4.9,4.9V1138.3z"/>
		</g>
	</g>
	<g>
		<g>
			<path class="st1" d="M513.5,1027.3c-6.7,7-12.8,13.3-18.6,18.9c-5.7,5.5-11.3,11-16.7,16.4c-5.4,5.4-10.8,10.9-16.4,16.6
				c-5.6,5.7-11.8,11.9-18.9,18.6v369.4c0.2,0.2,0.5,0.5,0.7,0.7c4.5,4.5,8.6,8.5,12.3,12c3.9,3.7,7.6,7.4,11.1,11.1
				c3.5,3.7,7.2,7.4,11.1,11.1c3.9,3.7,8.1,8,12.5,12.8h63.9v-200.1h113.8v128.8h63.8c4.5-4.8,8.6-9.1,12.5-12.8
				c3.9-3.7,7.6-7.4,11.1-11.1c3.5-3.7,7.2-7.4,11.1-11.1c3.7-3.5,7.8-7.5,12.3-12l0.7-0.7v-368.6H513.5z M668.4,1245.5H554.6
				v-148.8h113.8V1245.5z"/>
		</g>
		<g>
			<path class="st1" d="M1116.9,1303.2l-0.7-1.4l-4.2-8l-0.7-1.4l-4.2-8l-0.7-1.4l-4.5-8.7c9.7-9.2,19-18.4,28.1-27.5l30.6-30.6
				c0.2-0.2,0.5-0.5,0.7-0.7v-188.2H894.9l-70.5,70.5v345.9h63.9l47-47l0.7-0.7v-81.1h68.2l66.7,128.8h103.8v-29.4L1116.9,1303.2z
				 M1049.8,1245.5H936v-148.8h113.8V1245.5z"/>
		</g>
		<g>
			<path class="st1" d="M1473.9,1043.1c-4.1-4.3-9.2-9.5-15.6-15.8h-253.1v345.8l70.5,70.5h213.7v-69.4h-172.7v-277.6h172.7V1059
				C1483.2,1052.7,1477.9,1047.4,1473.9,1043.1z"/>
		</g>
		<g>
			<path class="st1" d="M1596,1027.3c-6.7,7-12.9,13.3-18.6,18.8c-5.7,5.6-11.3,11.1-16.7,16.4c-5.4,5.4-10.8,10.9-16.4,16.6
				c-5.6,5.7-11.8,11.9-18.9,18.6v345.9h111.6v-128.8h113.8v128.8h63.8c4.4-4.8,8.6-9.1,12.5-12.8c3.9-3.7,7.6-7.4,11.1-11.1
				c3.5-3.7,7.2-7.4,11.1-11.1c3.7-3.5,7.8-7.5,12.3-12c0.2-0.2,0.5-0.5,0.7-0.7v-368.6H1596z M1750.9,1245.5h-113.8v-148.8h113.8
				V1245.5z"/>
		</g>
		<g>
			<path class="st1" d="M2165,1027.3h-258.2v416.3h255.9l69.8-69.8l0.7-0.7v-277.6L2165,1027.3z M2121.7,1374.3h-103.2v-277.6h103.2
				V1374.3z"/>
		</g>
		<g>
			<path class="st1" d="M2540.9,1043.1c-4.1-4.3-9.2-9.5-15.6-15.8h-253.1v345.8l0.7,0.7l69.8,69.8h213.7v-69.4h-172.7V1260h102.7
				l26.9-26.9l1.4-1.4l3.3-3.3V1190h-134.4v-93.3h172.7V1059C2550.1,1052.7,2544.9,1047.4,2540.9,1043.1z"/>
		</g>
	</g>
</g>
</svg>
