<svg width="87" height="96" viewBox="0 0 87 96" fill="none" xmlns="http://www.w3.org/2000/svg">
<path d="M34.8884 94.2977H59.7719L86.0403 47.925L59.7719 1.55225H34.8884V94.2977Z" fill="#040509"/>
<path d="M57.1096 95.271H34.8864V93.3239H56.0342L82.3026 47.771L56.0342 2.21814H34.8864V0.270996H57.1096L84.5557 47.771L57.1096 95.271Z" fill="#1C2135"/>
<path d="M74.3146 68.1137L70.3718 65.8591L80.7664 47.7712L70.3718 29.6833L74.3146 27.4287L86.0406 47.7712L74.3146 68.1137Z" fill="url(#paint0_linear_675_257)"/>
<path d="M35.2446 7.75207H25.4644L22.7505 5.03632H0.629761V4.37019H23.0065L25.7716 7.13718H34.9886L41.082 1.03955L41.5429 1.44948L35.2446 7.75207Z" fill="url(#paint1_linear_675_257)"/>
<defs>
<linearGradient id="paint0_linear_675_257" x1="86.0406" y1="32.8534" x2="72.4631" y2="32.8725" gradientUnits="userSpaceOnUse">
<stop stop-color="#7F00FF"/>
<stop offset="1" stop-color="#E100FF"/>
</linearGradient>
<linearGradient id="paint1_linear_675_257" x1="41.5429" y1="1.93455" x2="6.10806" y2="2.72468" gradientUnits="userSpaceOnUse">
<stop stop-color="#7F00FF"/>
<stop offset="1" stop-color="#E100FF"/>
</linearGradient>
</defs>
</svg>
