<?xml version="1.0" encoding="UTF-8"?><svg id="Layer_1" xmlns="http://www.w3.org/2000/svg" viewBox="0 0 425.52 673.92"><defs><style>.cls-1{fill:#c497c5;}</style></defs><path class="cls-1" d="M14.67,129.5H86.31v418.49H14.67C6.57,547.99,0,541.42,0,533.33V144.17C0,136.08,6.57,129.5,14.67,129.5Z"/><path class="cls-1" d="M353.87,129.5h71.65v418.49h-71.65c-8.09,0-14.67-6.57-14.67-14.67V144.17c0-8.09,6.57-14.67,14.67-14.67Z" transform="translate(764.72 677.5) rotate(180)"/><path class="cls-1" d="M168.32,379.89h86.31v286.7c0,4.05-3.29,7.33-7.33,7.33h-71.65c-4.05,0-7.33-3.29-7.33-7.33V379.89h0Z"/><path class="cls-1" d="M168.32,0h86.31V286.7c0,4.05-3.29,7.33-7.33,7.33h-71.65c-4.05,0-7.33-3.29-7.33-7.33V0h0Z" transform="translate(422.95 294.04) rotate(-180)"/></svg>